<svg width="362" height="362" viewBox="0 0 362 362" fill="none" xmlns="http://www.w3.org/2000/svg">
    <rect x="6" y="6" width="350" height="350" stroke="#0FA3E0" stroke-width="12"
        stroke-linejoin="round" />
    <path
        d="M208.215 178.807C208.215 179.371 207.898 179.888 207.396 180.144L106.681 231.438C106.216 231.675 105.661 231.654 105.216 231.381C104.771 231.108 104.5 230.624 104.5 230.103V210.085C104.5 209.509 104.83 208.984 105.349 208.733L180.449 172.551L105.349 136.369C104.83 136.119 104.5 135.594 104.5 135.018V115C104.5 114.478 104.771 113.993 105.216 113.721C105.661 113.448 106.216 113.426 106.681 113.663L207.396 164.959C207.898 165.215 208.215 165.732 208.215 166.296V178.807Z"
        fill="#0FA3E0" stroke="#0FA3E0" stroke-width="3" stroke-linejoin="round" />
    <path
        d="M256 228.502C256.552 228.502 257 228.95 257 229.502V246.705C257 247.257 256.552 247.705 256 247.705H155.911C155.359 247.705 154.911 247.257 154.911 246.705V229.502C154.911 228.95 155.359 228.502 155.911 228.502H256Z"
        fill="#0FA3E0" stroke="#0FA3E0" stroke-width="2" stroke-linejoin="round" />
    <line x1="29.5" y1="36.5" x2="332.5" y2="36.5" stroke="#0FA3E0" stroke-width="13"
        stroke-linecap="round" />
</svg>